<svg width="182" height="80" viewBox="0 0 182 80" fill="none" xmlns="http://www.w3.org/2000/svg">
<path d="M55 39.1667C55.0057 41.3665 54.4918 43.5365 53.5 45.5C52.3241 47.853 50.5162 49.832 48.2791 51.2155C46.0419 52.599 43.4637 53.3324 40.8333 53.3334C38.6336 53.3391 36.4635 52.8252 34.5 51.8334L25 55L28.1667 45.5C27.1749 43.5365 26.6609 41.3665 26.6667 39.1667C26.6677 36.5363 27.401 33.9581 28.7845 31.721C30.168 29.4838 32.1471 27.676 34.5 26.5C36.4635 25.5083 38.6336 24.9943 40.8333 25H41.6667C45.1406 25.1917 48.4217 26.658 50.8819 29.1181C53.3421 31.5783 54.8083 34.8595 55 38.3334V39.1667Z" stroke="#1E1E1E" stroke-width="3.5" stroke-linecap="round" stroke-linejoin="round"/>
<path d="M89.9505 49.668C88.5425 49.668 87.2865 49.428 86.1825 48.948C85.0945 48.468 84.1665 47.812 83.3985 46.98C82.6465 46.132 82.0705 45.172 81.6705 44.1C81.2865 43.012 81.0945 41.86 81.0945 40.644C81.0945 39.316 81.3105 38.1 81.7425 36.996C82.1905 35.892 82.8145 34.94 83.6145 34.14C84.4145 33.324 85.3665 32.692 86.4705 32.244C87.5745 31.796 88.7905 31.572 90.1185 31.572C90.9825 31.572 91.7505 31.66 92.4225 31.836C93.0945 32.012 93.6465 32.212 94.0785 32.436C94.5105 32.644 94.7825 32.812 94.8945 32.94L93.7185 35.34C93.2865 34.956 92.7505 34.644 92.1105 34.404C91.4865 34.164 90.7505 34.044 89.9025 34.044C88.7985 34.044 87.7985 34.316 86.9025 34.86C86.0225 35.404 85.3185 36.172 84.7905 37.164C84.2785 38.156 84.0225 39.332 84.0225 40.692C84.0225 41.892 84.2465 42.988 84.6945 43.98C85.1425 44.956 85.7985 45.74 86.6625 46.332C87.5425 46.924 88.6065 47.22 89.8545 47.22C90.5425 47.22 91.2145 47.132 91.8705 46.956C92.5425 46.764 93.2305 46.452 93.9345 46.02L94.7265 48.3C94.5185 48.492 94.1665 48.7 93.6705 48.924C93.1745 49.132 92.5985 49.308 91.9425 49.452C91.3025 49.596 90.6385 49.668 89.9505 49.668ZM97.4724 49.5V31.86H99.9924V38.484L99.8964 40.524C100.184 39.868 100.656 39.316 101.312 38.868C101.984 38.42 102.784 38.196 103.712 38.196C104.896 38.196 105.784 38.444 106.376 38.94C106.968 39.42 107.36 40.108 107.552 41.004C107.76 41.9 107.864 42.964 107.864 44.196V49.5H105.296V44.172C105.296 42.892 105.168 41.94 104.912 41.316C104.656 40.692 104.072 40.38 103.16 40.38C102.712 40.38 102.24 40.524 101.744 40.812C101.264 41.084 100.856 41.492 100.52 42.036C100.184 42.564 100.016 43.228 100.016 44.028V49.5H97.4724ZM115.842 49.74C114.866 49.74 113.954 49.508 113.106 49.044C112.274 48.58 111.602 47.916 111.09 47.052C110.578 46.188 110.322 45.156 110.322 43.956C110.322 42.804 110.538 41.796 110.97 40.932C111.418 40.068 112.042 39.396 112.842 38.916C113.658 38.436 114.626 38.196 115.746 38.196C116.418 38.196 117.026 38.316 117.57 38.556C118.13 38.78 118.594 39.06 118.962 39.396C119.346 39.716 119.602 40.028 119.73 40.332L119.778 38.484H122.25V49.5H119.802L119.754 47.556C119.594 47.908 119.322 48.252 118.938 48.588C118.57 48.924 118.122 49.204 117.594 49.428C117.066 49.636 116.482 49.74 115.842 49.74ZM116.274 47.58C116.866 47.58 117.402 47.444 117.882 47.172C118.378 46.884 118.77 46.484 119.058 45.972C119.362 45.46 119.514 44.852 119.514 44.148V43.98C119.514 43.26 119.362 42.636 119.058 42.108C118.77 41.564 118.378 41.148 117.882 40.86C117.402 40.556 116.866 40.404 116.274 40.404C115.202 40.404 114.394 40.748 113.85 41.436C113.322 42.124 113.058 42.972 113.058 43.98C113.058 45.004 113.322 45.86 113.85 46.548C114.394 47.236 115.202 47.58 116.274 47.58ZM126.461 49.5V40.596H124.517V38.484H126.461V33.996L129.077 33.42V38.484H131.621V40.596H129.077V49.5H126.461ZM133.895 49.5V31.86H136.607V47.1H141.671V49.5H133.895ZM143.341 49.5V38.484H146.029V49.5H143.341ZM144.685 36.42C144.189 36.42 143.773 36.252 143.437 35.916C143.117 35.58 142.957 35.164 142.957 34.668C142.957 34.22 143.117 33.836 143.437 33.516C143.773 33.196 144.189 33.036 144.685 33.036C145.181 33.036 145.589 33.196 145.909 33.516C146.245 33.836 146.413 34.22 146.413 34.668C146.413 35.164 146.245 35.58 145.909 35.916C145.589 36.252 145.181 36.42 144.685 36.42ZM153.393 49.5L147.585 38.484H150.537L152.913 43.452L153.681 45.444L154.449 43.452L156.801 38.484H159.681L153.897 49.5H153.393ZM166.076 49.74C164.7 49.74 163.58 49.476 162.716 48.948C161.852 48.404 161.22 47.692 160.82 46.812C160.42 45.932 160.22 44.996 160.22 44.004C160.22 42.804 160.46 41.772 160.94 40.908C161.436 40.044 162.116 39.38 162.98 38.916C163.844 38.436 164.82 38.196 165.908 38.196C167.652 38.196 168.924 38.684 169.724 39.66C170.524 40.62 170.924 41.916 170.924 43.548C170.924 43.98 170.9 44.428 170.852 44.892H162.932C163.108 45.884 163.46 46.596 163.988 47.028C164.532 47.444 165.252 47.652 166.148 47.652C167.012 47.652 167.692 47.572 168.188 47.412C168.684 47.252 169.092 47.092 169.412 46.932L170.204 48.78C169.884 48.988 169.388 49.204 168.716 49.428C168.044 49.636 167.164 49.74 166.076 49.74ZM162.932 43.092H168.404C168.42 42.052 168.188 41.34 167.708 40.956C167.228 40.572 166.604 40.38 165.836 40.38C165.036 40.38 164.38 40.596 163.868 41.028C163.372 41.444 163.06 42.132 162.932 43.092Z" fill="black"/>
</svg>
